<svg width="32" height="32" viewBox="0 0 32 32" fill="none" xmlns="http://www.w3.org/2000/svg" class="mr-3"><g clip-path="url(#clip0_1456_13305)"><path d="M20.8698 26.713C22.0992 26.713 23.0959 25.7164 23.0959 24.487C23.0959 23.2575 22.0992 22.2609 20.8698 22.2609C19.6403 22.2609 18.6437 23.2575 18.6437 24.487C18.6437 25.7164 19.6403 26.713 20.8698 26.713Z" fill="#0F1339"></path><path d="M20.5747 27.0247C21.8042 27.0247 22.8008 26.028 22.8008 24.7986C22.8008 23.5692 21.8042 22.5725 20.5747 22.5725C19.3453 22.5725 18.3486 23.5692 18.3486 24.7986C18.3486 26.028 19.3453 27.0247 20.5747 27.0247Z" fill="#181844"></path><path d="M20.2798 27.335C21.5092 27.335 22.5059 26.3383 22.5059 25.1089C22.5059 23.8795 21.5092 22.8828 20.2798 22.8828C19.0504 22.8828 18.0537 23.8795 18.0537 25.1089C18.0537 26.3383 19.0504 27.335 20.2798 27.335Z" fill="#211D50"></path><path d="M19.9866 27.6466C21.216 27.6466 22.2127 26.65 22.2127 25.4205C22.2127 24.1911 21.216 23.1945 19.9866 23.1945C18.7572 23.1945 17.7605 24.1911 17.7605 25.4205C17.7605 26.65 18.7572 27.6466 19.9866 27.6466Z" fill="#2A225B"></path><path d="M19.6917 27.9569C20.9211 27.9569 21.9178 26.9603 21.9178 25.7308C21.9178 24.5014 20.9211 23.5048 19.6917 23.5048C18.4622 23.5048 17.4656 24.5014 17.4656 25.7308C17.4656 26.9603 18.4622 27.9569 19.6917 27.9569Z" fill="#332766"></path><path d="M19.3963 28.2686C20.6257 28.2686 21.6223 27.2719 21.6223 26.0425C21.6223 24.8131 20.6257 23.8164 19.3963 23.8164C18.1668 23.8164 17.1702 24.8131 17.1702 26.0425C17.1702 27.2719 18.1668 28.2686 19.3963 28.2686Z" fill="#3D2B71"></path><path d="M19.1013 28.5789C20.3308 28.5789 21.3274 27.5822 21.3274 26.3528C21.3274 25.1234 20.3308 24.1267 19.1013 24.1267C17.8719 24.1267 16.8752 25.1234 16.8752 26.3528C16.8752 27.5822 17.8719 28.5789 19.1013 28.5789Z" fill="#46307D"></path><path d="M18.8076 28.8904C20.0371 28.8904 21.0337 27.8938 21.0337 26.6643C21.0337 25.4349 20.0371 24.4382 18.8076 24.4382C17.5782 24.4382 16.5815 25.4349 16.5815 26.6643C16.5815 27.8938 17.5782 28.8904 18.8076 28.8904Z" fill="#4F3588"></path><path d="M18.5127 29.2008C19.7421 29.2008 20.7388 28.2042 20.7388 26.9747C20.7388 25.7453 19.7421 24.7487 18.5127 24.7487C17.2833 24.7487 16.2866 25.7453 16.2866 26.9747C16.2866 28.2042 17.2833 29.2008 18.5127 29.2008Z" fill="#583A93"></path><path d="M18.2182 29.5124C19.4476 29.5124 20.4442 28.5157 20.4442 27.2863C20.4442 26.0568 19.4476 25.0602 18.2182 25.0602C16.9887 25.0602 15.9921 26.0568 15.9921 27.2863C15.9921 28.5157 16.9887 29.5124 18.2182 29.5124Z" fill="#613F9F"></path><path d="M17.9232 29.8227C19.1527 29.8227 20.1493 28.826 20.1493 27.5966C20.1493 26.3671 19.1527 25.3705 17.9232 25.3705C16.6938 25.3705 15.6971 26.3671 15.6971 27.5966C15.6971 28.826 16.6938 29.8227 17.9232 29.8227Z" fill="#6A44AA"></path><path d="M17.6295 30.1343C18.859 30.1343 19.8556 29.1377 19.8556 27.9082C19.8556 26.6788 18.859 25.6821 17.6295 25.6821C16.4001 25.6821 15.4034 26.6788 15.4034 27.9082C15.4034 29.1377 16.4001 30.1343 17.6295 30.1343Z" fill="#7349B5"></path><path d="M17.3346 30.4446C18.564 30.4446 19.5607 29.448 19.5607 28.2185C19.5607 26.9891 18.564 25.9924 17.3346 25.9924C16.1052 25.9924 15.1085 26.9891 15.1085 28.2185C15.1085 29.448 16.1052 30.4446 17.3346 30.4446Z" fill="#7C4EC1"></path><path d="M17.0392 30.7563C18.2686 30.7563 19.2653 29.7596 19.2653 28.5302C19.2653 27.3007 18.2686 26.3041 17.0392 26.3041C15.8098 26.3041 14.8131 27.3007 14.8131 28.5302C14.8131 29.7596 15.8098 30.7563 17.0392 30.7563Z" fill="#8652CC"></path><path d="M16.7443 31.0664C17.9737 31.0664 18.9704 30.0698 18.9704 28.8403C18.9704 27.6109 17.9737 26.6143 16.7443 26.6143C15.5148 26.6143 14.5182 27.6109 14.5182 28.8403C14.5182 30.0698 15.5148 31.0664 16.7443 31.0664Z" fill="#8F57D7"></path><path d="M16.4511 31.3781C17.6805 31.3781 18.6772 30.3814 18.6772 29.152C18.6772 27.9226 17.6805 26.9259 16.4511 26.9259C15.2216 26.9259 14.225 27.9226 14.225 29.152C14.225 30.3814 15.2216 31.3781 16.4511 31.3781Z" fill="#985CE2"></path><path d="M16.1561 31.6884C17.3856 31.6884 18.3822 30.6917 18.3822 29.4623C18.3822 28.2329 17.3856 27.2362 16.1561 27.2362C14.9267 27.2362 13.9301 28.2329 13.9301 29.4623C13.9301 30.6917 14.9267 31.6884 16.1561 31.6884Z" fill="#A161EE"></path><path d="M15.8611 32C17.0905 32 18.0872 31.0034 18.0872 29.7739C18.0872 28.5445 17.0905 27.5479 15.8611 27.5479C14.6317 27.5479 13.635 28.5445 13.635 29.7739C13.635 31.0034 14.6317 32 15.8611 32Z" fill="#AA66F9"></path><path d="M26.7136 24.3479C27.9431 24.3479 28.9397 23.3513 28.9397 22.1218C28.9397 20.8924 27.9431 19.8958 26.7136 19.8958C25.4842 19.8958 24.4875 20.8924 24.4875 22.1218C24.4875 23.3513 25.4842 24.3479 26.7136 24.3479Z" fill="#0F1339"></path><path d="M26.6117 24.6637C27.8411 24.6637 28.8378 23.6671 28.8378 22.4376C28.8378 21.2082 27.8411 20.2115 26.6117 20.2115C25.3823 20.2115 24.3856 21.2082 24.3856 22.4376C24.3856 23.6671 25.3823 24.6637 26.6117 24.6637Z" fill="#1B1C4A"></path><path d="M26.5116 24.981C27.741 24.981 28.7377 23.9843 28.7377 22.7549C28.7377 21.5255 27.741 20.5288 26.5116 20.5288C25.2822 20.5288 24.2855 21.5255 24.2855 22.7549C24.2855 23.9843 25.2822 24.981 26.5116 24.981Z" fill="#27265C"></path><path d="M26.4102 25.2968C27.6396 25.2968 28.6363 24.3001 28.6363 23.0707C28.6363 21.8413 27.6396 20.8446 26.4102 20.8446C25.1807 20.8446 24.1841 21.8413 24.1841 23.0707C24.1841 24.3001 25.1807 25.2968 26.4102 25.2968Z" fill="#332F6D"></path><path d="M26.3087 25.6126C27.5382 25.6126 28.5348 24.6159 28.5348 23.3865C28.5348 22.1571 27.5382 21.1604 26.3087 21.1604C25.0793 21.1604 24.0826 22.1571 24.0826 23.3865C24.0826 24.6159 25.0793 25.6126 26.3087 25.6126Z" fill="#3F387F"></path><path d="M26.2072 25.9285C27.4366 25.9285 28.4333 24.9318 28.4333 23.7024C28.4333 22.473 27.4366 21.4763 26.2072 21.4763C24.9777 21.4763 23.9811 22.473 23.9811 23.7024C23.9811 24.9318 24.9777 25.9285 26.2072 25.9285Z" fill="#4B4290"></path><path d="M26.1071 26.2458C27.3365 26.2458 28.3332 25.2491 28.3332 24.0197C28.3332 22.7902 27.3365 21.7936 26.1071 21.7936C24.8776 21.7936 23.881 22.7902 23.881 24.0197C23.881 25.2491 24.8776 26.2458 26.1071 26.2458Z" fill="#564BA2"></path><path d="M26.0051 26.5615C27.2346 26.5615 28.2312 25.5649 28.2312 24.3355C28.2312 23.106 27.2346 22.1094 26.0051 22.1094C24.7757 22.1094 23.7791 23.106 23.7791 24.3355C23.7791 25.5649 24.7757 26.5615 26.0051 26.5615Z" fill="#6255B3"></path><path d="M25.9037 26.8773C27.1331 26.8773 28.1298 25.8807 28.1298 24.6513C28.1298 23.4218 27.1331 22.4252 25.9037 22.4252C24.6743 22.4252 23.6776 23.4218 23.6776 24.6513C23.6776 25.8807 24.6743 26.8773 25.9037 26.8773Z" fill="#6E5EC5"></path><path d="M25.8023 27.1931C27.0317 27.1931 28.0283 26.1965 28.0283 24.9671C28.0283 23.7376 27.0317 22.741 25.8023 22.741C24.5728 22.741 23.5762 23.7376 23.5762 24.9671C23.5762 26.1965 24.5728 27.1931 25.8023 27.1931Z" fill="#7A67D6"></path><path d="M25.702 27.5104C26.9315 27.5104 27.9281 26.5137 27.9281 25.2843C27.9281 24.0549 26.9315 23.0582 25.702 23.0582C24.4726 23.0582 23.476 24.0549 23.476 25.2843C23.476 26.5137 24.4726 27.5104 25.702 27.5104Z" fill="#8671E8"></path><path d="M25.6006 27.8262C26.83 27.8262 27.8267 26.8295 27.8267 25.6001C27.8267 24.3707 26.83 23.374 25.6006 23.374C24.3712 23.374 23.3745 24.3707 23.3745 25.6001C23.3745 26.8295 24.3712 27.8262 25.6006 27.8262Z" fill="#927AF9"></path><path d="M14.4695 24.0696C15.6989 24.0696 16.6956 23.073 16.6956 21.8435C16.6956 20.6141 15.6989 19.6174 14.4695 19.6174C13.2401 19.6174 12.2434 20.6141 12.2434 21.8435C12.2434 23.073 13.2401 24.0696 14.4695 24.0696Z" fill="#0F1339"></path><path d="M14.0521 24.245C15.2816 24.245 16.2782 23.2484 16.2782 22.0189C16.2782 20.7895 15.2816 19.7928 14.0521 19.7928C12.8227 19.7928 11.826 20.7895 11.826 22.0189C11.826 23.2484 12.8227 24.245 14.0521 24.245Z" fill="#161843"></path><path d="M13.6347 24.4215C14.8641 24.4215 15.8607 23.4249 15.8607 22.1954C15.8607 20.966 14.8641 19.9694 13.6347 19.9694C12.4052 19.9694 11.4086 20.966 11.4086 22.1954C11.4086 23.4249 12.4052 24.4215 13.6347 24.4215Z" fill="#1E1D4D"></path><path d="M13.2173 24.5968C14.4467 24.5968 15.4434 23.6002 15.4434 22.3707C15.4434 21.1413 14.4467 20.1447 13.2173 20.1447C11.9879 20.1447 10.9912 21.1413 10.9912 22.3707C10.9912 23.6002 11.9879 24.5968 13.2173 24.5968Z" fill="#252357"></path><path d="M12.7999 24.7722C14.0294 24.7722 15.026 23.7756 15.026 22.5462C15.026 21.3167 14.0294 20.3201 12.7999 20.3201C11.5705 20.3201 10.5739 21.3167 10.5739 22.5462C10.5739 23.7756 11.5705 24.7722 12.7999 24.7722Z" fill="#2C2862"></path><path d="M12.3826 24.949C13.612 24.949 14.6087 23.9523 14.6087 22.7229C14.6087 21.4935 13.612 20.4968 12.3826 20.4968C11.1531 20.4968 10.1565 21.4935 10.1565 22.7229C10.1565 23.9523 11.1531 24.949 12.3826 24.949Z" fill="#332D6C"></path><path d="M11.9652 25.1242C13.1947 25.1242 14.1913 24.1275 14.1913 22.8981C14.1913 21.6687 13.1947 20.672 11.9652 20.672C10.7358 20.672 9.73914 21.6687 9.73914 22.8981C9.73914 24.1275 10.7358 25.1242 11.9652 25.1242Z" fill="#3B3276"></path><path d="M11.5477 25.2995C12.7772 25.2995 13.7738 24.3028 13.7738 23.0734C13.7738 21.8439 12.7772 20.8473 11.5477 20.8473C10.3183 20.8473 9.32166 21.8439 9.32166 23.0734C9.32166 24.3028 10.3183 25.2995 11.5477 25.2995Z" fill="#423780"></path><path d="M11.1304 25.4762C12.3598 25.4762 13.3565 24.4796 13.3565 23.2501C13.3565 22.0207 12.3598 21.024 11.1304 21.024C9.90095 21.024 8.9043 22.0207 8.9043 23.2501C8.9043 24.4796 9.90095 25.4762 11.1304 25.4762Z" fill="#493D8A"></path><path d="M10.713 25.6515C11.9425 25.6515 12.9391 24.6549 12.9391 23.4254C12.9391 22.196 11.9425 21.1993 10.713 21.1993C9.48359 21.1993 8.48694 22.196 8.48694 23.4254C8.48694 24.6549 9.48359 25.6515 10.713 25.6515Z" fill="#504294"></path><path d="M10.2957 25.8268C11.5251 25.8268 12.5218 24.8302 12.5218 23.6007C12.5218 22.3713 11.5251 21.3746 10.2957 21.3746C9.06623 21.3746 8.06958 22.3713 8.06958 23.6007C8.06958 24.8302 9.06623 25.8268 10.2957 25.8268Z" fill="#58479F"></path><path d="M9.87867 26.0021C11.1081 26.0021 12.1048 25.0054 12.1048 23.776C12.1048 22.5466 11.1081 21.5499 9.87867 21.5499C8.64924 21.5499 7.65259 22.5466 7.65259 23.776C7.65259 25.0054 8.64924 26.0021 9.87867 26.0021Z" fill="#5F4CA9"></path><path d="M9.46132 26.1789C10.6908 26.1789 11.6874 25.1822 11.6874 23.9528C11.6874 22.7233 10.6908 21.7267 9.46132 21.7267C8.23188 21.7267 7.23523 22.7233 7.23523 23.9528C7.23523 25.1822 8.23188 26.1789 9.46132 26.1789Z" fill="#6652B3"></path><path d="M9.04396 26.3542C10.2734 26.3542 11.27 25.3575 11.27 24.1281C11.27 22.8986 10.2734 21.902 9.04396 21.902C7.81452 21.902 6.81787 22.8986 6.81787 24.1281C6.81787 25.3575 7.81452 26.3542 9.04396 26.3542Z" fill="#6D57BD"></path><path d="M8.6266 26.5294C9.85603 26.5294 10.8527 25.5328 10.8527 24.3034C10.8527 23.0739 9.85603 22.0773 8.6266 22.0773C7.39717 22.0773 6.40051 23.0739 6.40051 24.3034C6.40051 25.5328 7.39717 26.5294 8.6266 26.5294Z" fill="#755CC7"></path><path d="M8.20924 26.7062C9.43868 26.7062 10.4353 25.7095 10.4353 24.4801C10.4353 23.2507 9.43868 22.254 8.20924 22.254C6.97981 22.254 5.98315 23.2507 5.98315 24.4801C5.98315 25.7095 6.97981 26.7062 8.20924 26.7062Z" fill="#7C61D1"></path><path d="M7.79176 26.8815C9.02119 26.8815 10.0178 25.8848 10.0178 24.6554C10.0178 23.426 9.02119 22.4293 7.79176 22.4293C6.56233 22.4293 5.56567 23.426 5.56567 24.6554C5.56567 25.8848 6.56233 26.8815 7.79176 26.8815Z" fill="#8366DC"></path><path d="M7.3744 27.0568C8.60384 27.0568 9.60049 26.0601 9.60049 24.8307C9.60049 23.6013 8.60384 22.6046 7.3744 22.6046C6.14497 22.6046 5.14832 23.6013 5.14832 24.8307C5.14832 26.0601 6.14497 27.0568 7.3744 27.0568Z" fill="#8A6CE6"></path><path d="M6.95704 27.2334C8.18648 27.2334 9.18313 26.2368 9.18313 25.0073C9.18313 23.7779 8.18648 22.7812 6.95704 22.7812C5.72761 22.7812 4.73096 23.7779 4.73096 25.0073C4.73096 26.2368 5.72761 27.2334 6.95704 27.2334Z" fill="#9271F0"></path><path d="M6.53969 27.4087C7.76912 27.4087 8.76577 26.4121 8.76577 25.1826C8.76577 23.9532 7.76912 22.9565 6.53969 22.9565C5.31025 22.9565 4.3136 23.9532 4.3136 25.1826C4.3136 26.4121 5.31025 27.4087 6.53969 27.4087Z" fill="#9976FA"></path><path d="M29.2177 17.9479C30.4471 17.9479 31.4438 16.9512 31.4438 15.7218C31.4438 14.4924 30.4471 13.4957 29.2177 13.4957C27.9882 13.4957 26.9916 14.4924 26.9916 15.7218C26.9916 16.9512 27.9882 17.9479 29.2177 17.9479Z" fill="#5CACFC"></path><path d="M26.7134 11.8261C27.9428 11.8261 28.9395 10.8294 28.9395 9.59999C28.9395 8.37055 27.9428 7.3739 26.7134 7.3739C25.484 7.3739 24.4873 8.37055 24.4873 9.59999C24.4873 10.8294 25.484 11.8261 26.7134 11.8261Z" fill="#11274F"></path><path d="M26.5867 11.5227C27.8161 11.5227 28.8128 10.5261 28.8128 9.29664C28.8128 8.06721 27.8161 7.07056 26.5867 7.07056C25.3572 7.07056 24.3606 8.06721 24.3606 9.29664C24.3606 10.5261 25.3572 11.5227 26.5867 11.5227Z" fill="#13355C"></path><path d="M26.46 11.2195C27.6894 11.2195 28.6861 10.2229 28.6861 8.99342C28.6861 7.76399 27.6894 6.76733 26.46 6.76733C25.2305 6.76733 24.2339 7.76399 24.2339 8.99342C24.2339 10.2229 25.2305 11.2195 26.46 11.2195Z" fill="#144269"></path><path d="M26.3333 10.9148C27.5627 10.9148 28.5594 9.91817 28.5594 8.68873C28.5594 7.4593 27.5627 6.46265 26.3333 6.46265C25.1038 6.46265 24.1072 7.4593 24.1072 8.68873C24.1072 9.91817 25.1038 10.9148 26.3333 10.9148Z" fill="#165076"></path><path d="M26.207 10.6115C27.4365 10.6115 28.4331 9.61482 28.4331 8.38539C28.4331 7.15595 27.4365 6.1593 26.207 6.1593C24.9776 6.1593 23.981 7.15595 23.981 8.38539C23.981 9.61482 24.9776 10.6115 26.207 10.6115Z" fill="#185E83"></path><path d="M26.0803 10.3083C27.3098 10.3083 28.3064 9.3116 28.3064 8.08217C28.3064 6.85273 27.3098 5.85608 26.0803 5.85608C24.8509 5.85608 23.8542 6.85273 23.8542 8.08217C23.8542 9.3116 24.8509 10.3083 26.0803 10.3083Z" fill="#1A6C90"></path><path d="M25.9548 10.0048C27.1843 10.0048 28.1809 9.00813 28.1809 7.7787C28.1809 6.54927 27.1843 5.55261 25.9548 5.55261C24.7254 5.55261 23.7288 6.54927 23.7288 7.7787C23.7288 9.00813 24.7254 10.0048 25.9548 10.0048Z" fill="#1B799E"></path><path d="M25.8281 9.70156C27.0576 9.70156 28.0542 8.70491 28.0542 7.47548C28.0542 6.24604 27.0576 5.24939 25.8281 5.24939C24.5987 5.24939 23.6021 6.24604 23.6021 7.47548C23.6021 8.70491 24.5987 9.70156 25.8281 9.70156Z" fill="#1D87AB"></path><path d="M25.7018 9.39834C26.9312 9.39834 27.9279 8.40169 27.9279 7.17225C27.9279 5.94282 26.9312 4.94617 25.7018 4.94617C24.4724 4.94617 23.4757 5.94282 23.4757 7.17225C23.4757 8.40169 24.4724 9.39834 25.7018 9.39834Z" fill="#1F95B8"></path><path d="M25.5751 9.09353C26.8045 9.09353 27.8012 8.09688 27.8012 6.86744C27.8012 5.63801 26.8045 4.64136 25.5751 4.64136C24.3457 4.64136 23.349 5.63801 23.349 6.86744C23.349 8.09688 24.3457 9.09353 25.5751 9.09353Z" fill="#21A3C5"></path><path d="M25.4484 8.79019C26.6778 8.79019 27.6745 7.79353 27.6745 6.5641C27.6745 5.33467 26.6778 4.33801 25.4484 4.33801C24.2189 4.33801 23.2223 5.33467 23.2223 6.5641C23.2223 7.79353 24.2189 8.79019 25.4484 8.79019Z" fill="#22B0D2"></path><path d="M25.3218 8.48696C26.5512 8.48696 27.5479 7.49031 27.5479 6.26088C27.5479 5.03144 26.5512 4.03479 25.3218 4.03479C24.0924 4.03479 23.0957 5.03144 23.0957 6.26088C23.0957 7.49031 24.0924 8.48696 25.3218 8.48696Z" fill="#24BEDF"></path><path d="M20.5914 9.18264C21.8209 9.18264 22.8175 8.18599 22.8175 6.95656C22.8175 5.72712 21.8209 4.73047 20.5914 4.73047C19.362 4.73047 18.3654 5.72712 18.3654 6.95656C18.3654 8.18599 19.362 9.18264 20.5914 9.18264Z" fill="#11274F"></path><path d="M20.3423 8.93362C21.5717 8.93362 22.5684 7.93697 22.5684 6.70753C22.5684 5.4781 21.5717 4.48145 20.3423 4.48145C19.1129 4.48145 18.1162 5.4781 18.1162 6.70753C18.1162 7.93697 19.1129 8.93362 20.3423 8.93362Z" fill="#113258"></path><path d="M20.0936 8.6846C21.3231 8.6846 22.3197 7.68794 22.3197 6.45851C22.3197 5.22907 21.3231 4.23242 20.0936 4.23242C18.8642 4.23242 17.8676 5.22907 17.8676 6.45851C17.8676 7.68794 18.8642 8.6846 20.0936 8.6846Z" fill="#103C61"></path><path d="M19.8445 8.43545C21.0739 8.43545 22.0706 7.4388 22.0706 6.20936C22.0706 4.97993 21.0739 3.98328 19.8445 3.98328C18.6151 3.98328 17.6184 4.97993 17.6184 6.20936C17.6184 7.4388 18.6151 8.43545 19.8445 8.43545Z" fill="#10476A"></path><path d="M19.5953 8.18655C20.8248 8.18655 21.8214 7.1899 21.8214 5.96046C21.8214 4.73103 20.8248 3.73438 19.5953 3.73438C18.3659 3.73438 17.3693 4.73103 17.3693 5.96046C17.3693 7.1899 18.3659 8.18655 19.5953 8.18655Z" fill="#105273"></path><path d="M19.3462 7.9374C20.5756 7.9374 21.5723 6.94075 21.5723 5.71132C21.5723 4.48188 20.5756 3.48523 19.3462 3.48523C18.1168 3.48523 17.1201 4.48188 17.1201 5.71132C17.1201 6.94075 18.1168 7.9374 19.3462 7.9374Z" fill="#105D7C"></path><path d="M19.0974 7.68838C20.3269 7.68838 21.3235 6.69173 21.3235 5.46229C21.3235 4.23286 20.3269 3.23621 19.0974 3.23621C17.868 3.23621 16.8713 4.23286 16.8713 5.46229C16.8713 6.69173 17.868 7.68838 19.0974 7.68838Z" fill="#0F6785"></path><path d="M18.8483 7.43936C20.0777 7.43936 21.0744 6.4427 21.0744 5.21327C21.0744 3.98384 20.0777 2.98718 18.8483 2.98718C17.6188 2.98718 16.6222 3.98384 16.6222 5.21327C16.6222 6.4427 17.6188 7.43936 18.8483 7.43936Z" fill="#0F728E"></path><path d="M18.5991 7.19033C19.8286 7.19033 20.8252 6.19368 20.8252 4.96425C20.8252 3.73481 19.8286 2.73816 18.5991 2.73816C17.3697 2.73816 16.373 3.73481 16.373 4.96425C16.373 6.19368 17.3697 7.19033 18.5991 7.19033Z" fill="#0F7D97"></path><path d="M18.35 6.94131C19.5794 6.94131 20.5761 5.94466 20.5761 4.71522C20.5761 3.48579 19.5794 2.48914 18.35 2.48914C17.1206 2.48914 16.1239 3.48579 16.1239 4.71522C16.1239 5.94466 17.1206 6.94131 18.35 6.94131Z" fill="#0F88A0"></path><path d="M18.1026 6.69363C19.332 6.69363 20.3286 5.69698 20.3286 4.46754C20.3286 3.23811 19.332 2.24146 18.1026 2.24146C16.8731 2.24146 15.8765 3.23811 15.8765 4.46754C15.8765 5.69698 16.8731 6.69363 18.1026 6.69363Z" fill="#0E92AA"></path><path d="M17.8534 6.44461C19.0828 6.44461 20.0795 5.44795 20.0795 4.21852C20.0795 2.98908 19.0828 1.99243 17.8534 1.99243C16.624 1.99243 15.6273 2.98908 15.6273 4.21852C15.6273 5.44795 16.624 6.44461 17.8534 6.44461Z" fill="#0E9DB3"></path><path d="M17.6047 6.19546C18.8342 6.19546 19.8308 5.19881 19.8308 3.96937C19.8308 2.73994 18.8342 1.74329 17.6047 1.74329C16.3753 1.74329 15.3787 2.73994 15.3787 3.96937C15.3787 5.19881 16.3753 6.19546 17.6047 6.19546Z" fill="#0EA8BC"></path><path d="M17.3551 5.94644C18.5845 5.94644 19.5812 4.94978 19.5812 3.72035C19.5812 2.49092 18.5845 1.49426 17.3551 1.49426C16.1257 1.49426 15.129 2.49092 15.129 3.72035C15.129 4.94978 16.1257 5.94644 17.3551 5.94644Z" fill="#0EB3C5"></path><path d="M17.1065 5.69741C18.3359 5.69741 19.3325 4.70076 19.3325 3.47133C19.3325 2.24189 18.3359 1.24524 17.1065 1.24524C15.877 1.24524 14.8804 2.24189 14.8804 3.47133C14.8804 4.70076 15.877 5.69741 17.1065 5.69741Z" fill="#0DBDCE"></path><path d="M16.8573 5.44827C18.0867 5.44827 19.0834 4.45161 19.0834 3.22218C19.0834 1.99275 18.0867 0.996094 16.8573 0.996094C15.6279 0.996094 14.6312 1.99275 14.6312 3.22218C14.6312 4.45161 15.6279 5.44827 16.8573 5.44827Z" fill="#0DC8D7"></path><path d="M16.6085 5.19937C17.838 5.19937 18.8346 4.20271 18.8346 2.97328C18.8346 1.74385 17.838 0.747192 16.6085 0.747192C15.3791 0.747192 14.3824 1.74385 14.3824 2.97328C14.3824 4.20271 15.3791 5.19937 16.6085 5.19937Z" fill="#0DD3E0"></path><path d="M16.359 4.95022C17.5885 4.95022 18.5851 3.95357 18.5851 2.72413C18.5851 1.4947 17.5885 0.498047 16.359 0.498047C15.1296 0.498047 14.1329 1.4947 14.1329 2.72413C14.1329 3.95357 15.1296 4.95022 16.359 4.95022Z" fill="#0DDEE9"></path><path d="M16.1102 4.7012C17.3397 4.7012 18.3363 3.70454 18.3363 2.47511C18.3363 1.24568 17.3397 0.249023 16.1102 0.249023C14.8808 0.249023 13.8842 1.24568 13.8842 2.47511C13.8842 3.70454 14.8808 4.7012 16.1102 4.7012Z" fill="#0CE8F2"></path><path d="M15.8612 4.45217C17.0907 4.45217 18.0873 3.45552 18.0873 2.22609C18.0873 0.996653 17.0907 0 15.8612 0C14.6318 0 13.6351 0.996653 13.6351 2.22609C13.6351 3.45552 14.6318 4.45217 15.8612 4.45217Z" fill="#0CF3FB"></path><path d="M14.4693 11.8261C15.6987 11.8261 16.6953 10.8294 16.6953 9.59999C16.6953 8.37055 15.6987 7.3739 14.4693 7.3739C13.2398 7.3739 12.2432 8.37055 12.2432 9.59999C12.2432 10.8294 13.2398 11.8261 14.4693 11.8261Z" fill="#11274F"></path><path d="M14.03 11.6425C15.2595 11.6425 16.2561 10.6458 16.2561 9.41639C16.2561 8.18696 15.2595 7.19031 14.03 7.19031C12.8006 7.19031 11.804 8.18696 11.804 9.41639C11.804 10.6458 12.8006 11.6425 14.03 11.6425Z" fill="#123058"></path><path d="M13.5903 11.4602C14.8198 11.4602 15.8164 10.4636 15.8164 9.23414C15.8164 8.00471 14.8198 7.00806 13.5903 7.00806C12.3609 7.00806 11.3643 8.00471 11.3643 9.23414C11.3643 10.4636 12.3609 11.4602 13.5903 11.4602Z" fill="#133A61"></path><path d="M13.1521 11.2765C14.3815 11.2765 15.3782 10.2799 15.3782 9.05043C15.3782 7.82099 14.3815 6.82434 13.1521 6.82434C11.9227 6.82434 10.926 7.82099 10.926 9.05043C10.926 10.2799 11.9227 11.2765 13.1521 11.2765Z" fill="#14436A"></path><path d="M12.7124 11.0943C13.9418 11.0943 14.9385 10.0976 14.9385 8.86818C14.9385 7.63874 13.9418 6.64209 12.7124 6.64209C11.483 6.64209 10.4863 7.63874 10.4863 8.86818C10.4863 10.0976 11.483 11.0943 12.7124 11.0943Z" fill="#164D73"></path><path d="M12.2727 10.9107C13.5022 10.9107 14.4988 9.91402 14.4988 8.68458C14.4988 7.45515 13.5022 6.4585 12.2727 6.4585C11.0433 6.4585 10.0466 7.45515 10.0466 8.68458C10.0466 9.91402 11.0433 10.9107 12.2727 10.9107Z" fill="#17567D"></path><path d="M11.8331 10.7284C13.0626 10.7284 14.0592 9.73177 14.0592 8.50233C14.0592 7.2729 13.0626 6.27625 11.8331 6.27625C10.6037 6.27625 9.60706 7.2729 9.60706 8.50233C9.60706 9.73177 10.6037 10.7284 11.8331 10.7284Z" fill="#186086"></path><path d="M11.3934 10.5447C12.6229 10.5447 13.6195 9.54805 13.6195 8.31862C13.6195 7.08918 12.6229 6.09253 11.3934 6.09253C10.164 6.09253 9.16736 7.08918 9.16736 8.31862C9.16736 9.54805 10.164 10.5447 11.3934 10.5447Z" fill="#19698F"></path><path d="M10.9551 10.361C12.1845 10.361 13.1812 9.36433 13.1812 8.1349C13.1812 6.90547 12.1845 5.90881 10.9551 5.90881C9.72566 5.90881 8.729 6.90547 8.729 8.1349C8.729 9.36433 9.72566 10.361 10.9551 10.361Z" fill="#1A7298"></path><path d="M10.5155 10.1787C11.7449 10.1787 12.7416 9.18208 12.7416 7.95265C12.7416 6.72322 11.7449 5.72656 10.5155 5.72656C9.28608 5.72656 8.28943 6.72322 8.28943 7.95265C8.28943 9.18208 9.28608 10.1787 10.5155 10.1787Z" fill="#1B7CA1"></path><path d="M10.0758 9.99514C11.3053 9.99514 12.3019 8.99849 12.3019 7.76906C12.3019 6.53962 11.3053 5.54297 10.0758 5.54297C8.84638 5.54297 7.84973 6.53962 7.84973 7.76906C7.84973 8.99849 8.84638 9.99514 10.0758 9.99514Z" fill="#1D85AA"></path><path d="M9.63624 9.81277C10.8657 9.81277 11.8623 8.81612 11.8623 7.58668C11.8623 6.35725 10.8657 5.3606 9.63624 5.3606C8.40681 5.3606 7.41016 6.35725 7.41016 7.58668C7.41016 8.81612 8.40681 9.81277 9.63624 9.81277Z" fill="#1E8FB3"></path><path d="M9.19789 9.6293C10.4273 9.6293 11.424 8.63265 11.424 7.40321C11.424 6.17378 10.4273 5.17712 9.19789 5.17712C7.96845 5.17712 6.9718 6.17378 6.9718 7.40321C6.9718 8.63265 7.96845 9.6293 9.19789 9.6293Z" fill="#1F98BC"></path><path d="M8.75819 9.44558C9.98763 9.44558 10.9843 8.44893 10.9843 7.2195C10.9843 5.99006 9.98763 4.99341 8.75819 4.99341C7.52876 4.99341 6.5321 5.99006 6.5321 7.2195C6.5321 8.44893 7.52876 9.44558 8.75819 9.44558Z" fill="#20A1C5"></path><path d="M8.31862 9.26333C9.54805 9.26333 10.5447 8.26668 10.5447 7.03724C10.5447 5.80781 9.54805 4.81116 8.31862 4.81116C7.08918 4.81116 6.09253 5.80781 6.09253 7.03724C6.09253 8.26668 7.08918 9.26333 8.31862 9.26333Z" fill="#21ABCE"></path><path d="M7.87892 9.07962C9.10835 9.07962 10.105 8.08296 10.105 6.85353C10.105 5.62409 9.10835 4.62744 7.87892 4.62744C6.64948 4.62744 5.65283 5.62409 5.65283 6.85353C5.65283 8.08296 6.64948 9.07962 7.87892 9.07962Z" fill="#22B4D8"></path><path d="M7.43934 8.89736C8.66878 8.89736 9.66543 7.90071 9.66543 6.67128C9.66543 5.44184 8.66878 4.44519 7.43934 4.44519C6.20991 4.44519 5.21326 5.44184 5.21326 6.67128C5.21326 7.90071 6.20991 8.89736 7.43934 8.89736Z" fill="#24BEE1"></path><path d="M7.00099 8.71377C8.23042 8.71377 9.22708 7.71712 9.22708 6.48768C9.22708 5.25825 8.23042 4.2616 7.00099 4.2616C5.77156 4.2616 4.7749 5.25825 4.7749 6.48768C4.7749 7.71712 5.77156 8.71377 7.00099 8.71377Z" fill="#25C7EA"></path><path d="M6.56129 8.53152C7.79073 8.53152 8.78738 7.53487 8.78738 6.30543C8.78738 5.076 7.79073 4.07935 6.56129 4.07935C5.33186 4.07935 4.33521 5.076 4.33521 6.30543C4.33521 7.53487 5.33186 8.53152 6.56129 8.53152Z" fill="#26D1F3"></path><path d="M6.12208 8.34793C7.35152 8.34793 8.34817 7.35127 8.34817 6.12184C8.34817 4.89241 7.35152 3.89575 6.12208 3.89575C4.89265 3.89575 3.896 4.89241 3.896 6.12184C3.896 7.35127 4.89265 8.34793 6.12208 8.34793Z" fill="#27DAFC"></path><path d="M11.9653 17.9479C13.1948 17.9479 14.1914 16.9512 14.1914 15.7218C14.1914 14.4924 13.1948 13.4957 11.9653 13.4957C10.7359 13.4957 9.73926 14.4924 9.73926 15.7218C9.73926 16.9512 10.7359 17.9479 11.9653 17.9479Z" fill="#0F1339"></path><path d="M11.4537 17.9549C12.6832 17.9549 13.6798 16.9582 13.6798 15.7288C13.6798 14.4993 12.6832 13.5027 11.4537 13.5027C10.2243 13.5027 9.22766 14.4993 9.22766 15.7288C9.22766 16.9582 10.2243 17.9549 11.4537 17.9549Z" fill="#131B43"></path><path d="M10.9406 17.9632C12.17 17.9632 13.1667 16.9665 13.1667 15.7371C13.1667 14.5076 12.17 13.511 10.9406 13.511C9.71113 13.511 8.71448 14.5076 8.71448 15.7371C8.71448 16.9665 9.71113 17.9632 10.9406 17.9632Z" fill="#17234E"></path><path d="M10.4285 17.97C11.6579 17.97 12.6546 16.9733 12.6546 15.7439C12.6546 14.5145 11.6579 13.5178 10.4285 13.5178C9.19905 13.5178 8.20239 14.5145 8.20239 15.7439C8.20239 16.9733 9.19905 17.97 10.4285 17.97Z" fill="#1B2B58"></path><path d="M9.91481 17.9771C11.1442 17.9771 12.1409 16.9804 12.1409 15.751C12.1409 14.5216 11.1442 13.5249 9.91481 13.5249C8.68537 13.5249 7.68872 14.5216 7.68872 15.751C7.68872 16.9804 8.68537 17.9771 9.91481 17.9771Z" fill="#1F3362"></path><path d="M9.40284 17.984C10.6323 17.984 11.6289 16.9874 11.6289 15.7579C11.6289 14.5285 10.6323 13.5319 9.40284 13.5319C8.17341 13.5319 7.17676 14.5285 7.17676 15.7579C7.17676 16.9874 8.17341 17.984 9.40284 17.984Z" fill="#243C6C"></path><path d="M8.88954 17.9925C10.119 17.9925 11.1156 16.9958 11.1156 15.7664C11.1156 14.5369 10.119 13.5403 8.88954 13.5403C7.66011 13.5403 6.66345 14.5369 6.66345 15.7664C6.66345 16.9958 7.66011 17.9925 8.88954 17.9925Z" fill="#284477"></path><path d="M8.37758 17.9994C9.60701 17.9994 10.6037 17.0028 10.6037 15.7733C10.6037 14.5439 9.60701 13.5472 8.37758 13.5472C7.14814 13.5472 6.15149 14.5439 6.15149 15.7733C6.15149 17.0028 7.14814 17.9994 8.37758 17.9994Z" fill="#2C4C81"></path><path d="M7.86561 18.0063C9.09505 18.0063 10.0917 17.0096 10.0917 15.7802C10.0917 14.5507 9.09505 13.5541 7.86561 13.5541C6.63618 13.5541 5.63953 14.5507 5.63953 15.7802C5.63953 17.0096 6.63618 18.0063 7.86561 18.0063Z" fill="#30548B"></path><path d="M7.35194 18.0132C8.58138 18.0132 9.57803 17.0166 9.57803 15.7871C9.57803 14.5577 8.58138 13.561 7.35194 13.561C6.12251 13.561 5.12585 14.5577 5.12585 15.7871C5.12585 17.0166 6.12251 18.0132 7.35194 18.0132Z" fill="#345C95"></path><path d="M6.83998 18.0216C8.06941 18.0216 9.06607 17.025 9.06607 15.7955C9.06607 14.5661 8.06941 13.5695 6.83998 13.5695C5.61054 13.5695 4.61389 14.5661 4.61389 15.7955C4.61389 17.025 5.61054 18.0216 6.83998 18.0216Z" fill="#3864A0"></path><path d="M6.32667 18.0286C7.55611 18.0286 8.55276 17.0319 8.55276 15.8025C8.55276 14.5731 7.55611 13.5764 6.32667 13.5764C5.09724 13.5764 4.10059 14.5731 4.10059 15.8025C4.10059 17.0319 5.09724 18.0286 6.32667 18.0286Z" fill="#3C6CAA"></path><path d="M5.81471 18.0355C7.04414 18.0355 8.0408 17.0389 8.0408 15.8095C8.0408 14.58 7.04414 13.5834 5.81471 13.5834C4.58528 13.5834 3.58862 14.58 3.58862 15.8095C3.58862 17.0389 4.58528 18.0355 5.81471 18.0355Z" fill="#4074B4"></path><path d="M5.30263 18.0425C6.53206 18.0425 7.52871 17.0459 7.52871 15.8164C7.52871 14.587 6.53206 13.5903 5.30263 13.5903C4.07319 13.5903 3.07654 14.587 3.07654 15.8164C3.07654 17.0459 4.07319 18.0425 5.30263 18.0425Z" fill="#447CBE"></path><path d="M4.78944 18.0508C6.01888 18.0508 7.01553 17.0542 7.01553 15.8247C7.01553 14.5953 6.01888 13.5986 4.78944 13.5986C3.56001 13.5986 2.56335 14.5953 2.56335 15.8247C2.56335 17.0542 3.56001 18.0508 4.78944 18.0508Z" fill="#4884C9"></path><path d="M4.27748 18.0578C5.50691 18.0578 6.50357 17.0611 6.50357 15.8317C6.50357 14.6022 5.50691 13.6056 4.27748 13.6056C3.04804 13.6056 2.05139 14.6022 2.05139 15.8317C2.05139 17.0611 3.04804 18.0578 4.27748 18.0578Z" fill="#4D8DD3"></path><path d="M3.76417 18.0647C4.99361 18.0647 5.99026 17.0681 5.99026 15.8386C5.99026 14.6092 4.99361 13.6125 3.76417 13.6125C2.53474 13.6125 1.53809 14.6092 1.53809 15.8386C1.53809 17.0681 2.53474 18.0647 3.76417 18.0647Z" fill="#5195DD"></path><path d="M3.25172 18.0717C4.48116 18.0717 5.47781 17.075 5.47781 15.8456C5.47781 14.6162 4.48116 13.6195 3.25172 13.6195C2.02229 13.6195 1.02563 14.6162 1.02563 15.8456C1.02563 17.075 2.02229 18.0717 3.25172 18.0717Z" fill="#559DE7"></path><path d="M2.73842 18.0801C3.96785 18.0801 4.9645 17.0835 4.9645 15.854C4.9645 14.6246 3.96785 13.6279 2.73842 13.6279C1.50898 13.6279 0.512329 14.6246 0.512329 15.854C0.512329 17.0835 1.50898 18.0801 2.73842 18.0801Z" fill="#59A5F2"></path><path d="M2.22645 18.0871C3.45589 18.0871 4.45254 17.0904 4.45254 15.861C4.45254 14.6315 3.45589 13.6349 2.22645 13.6349C0.997019 13.6349 0.000366211 14.6315 0.000366211 15.861C0.000366211 17.0904 0.997019 18.0871 2.22645 18.0871Z" fill="#5DADFC"></path></g><defs><clipPath id="clip0_1456_13305"><rect width="31.4435" height="32" fill="white"></rect></clipPath></defs></svg>